<mxfile host="app.diagrams.net" modified="2023-09-19T08:32:52.434Z" agent="Mozilla/5.0 (Macintosh; Intel Mac OS X 10_15_7) AppleWebKit/537.36 (KHTML, like Gecko) Chrome/117.0.0.0 Safari/537.36" version="21.7.5" etag="ndHsP0InrM84s_odN0SC" type="github">
  <diagram name="第 1 页" id="HSUi-4jnisoA7FEPTMfJ">
    <mxGraphModel>
      <root>
        <mxCell id="0" />
        <mxCell id="1" parent="0" />
      </root>
    </mxGraphModel>
  </diagram>
</mxfile>
